{
	"asset":{
		"generator":"Khronos glTF Blender I/O v3.5.30",
		"version":"2.0"
	},
	"extensionsUsed":[
		"KHR_materials_specular",
		"KHR_materials_ior"
	],
	"scene":0,
	"scenes":[
		{
			"name":"Scene",
			"nodes":[
				0,
				1,
				2,
				3
			]
		}
	],
	"nodes":[
		{
			"mesh":0,
			"name":"TexturedMeshSimplified",
			"rotation":[
				0.7071068286895752,
				0,
				0,
				0.7071068286895752
			],
			"translation":[
				-1.0547704696655273,
				1.205573320388794,
				0.7860169410705566
			]
		},
		{
			"mesh":1,
			"name":"Icosphere",
			"rotation":[
				-0.013930264860391617,
				0.2846248745918274,
				-0.03759625181555748,
				0.9578002691268921
			],
			"scale":[
				0.07990620285272598,
				0.07990620285272598,
				0.07990620285272598
			],
			"translation":[
				0.878157377243042,
				-0.06581805646419525,
				0.34978416562080383
			]
		},
		{
			"mesh":2,
			"name":"Icosphere.001",
			"rotation":[
				-0.06515535712242126,
				0.7907420992851257,
				0.20258048176765442,
				0.5739712119102478
			],
			"scale":[
				0.07990620285272598,
				0.07990620285272598,
				0.07990620285272598
			],
			"translation":[
				0.1263708621263504,
				-0.06929084658622742,
				-0.5462331771850586
			]
		},
		{
			"mesh":3,
			"name":"Icosphere.002",
			"rotation":[
				0.1328015774488449,
				-0.445384681224823,
				-0.8678333163261414,
				0.17567460238933563
			],
			"scale":[
				0.07990620285272598,
				0.07990620285272598,
				0.07990620285272598
			],
			"translation":[
				0.14774075150489807,
				0.7378291487693787,
				0.17531311511993408
			]
		}
	],
	"materials":[
		{
			"doubleSided":true,
			"extensions":{
				"KHR_materials_specular":{
					"specularColorFactor":[
						0,
						0,
						0
					]
				},
				"KHR_materials_ior":{
					"ior":1.4500000476837158
				}
			},
			"name":"0000",
			"pbrMetallicRoughness":{
				"baseColorTexture":{
					"index":0
				},
				"metallicFactor":0,
				"roughnessFactor":0.9683772325515747
			}
		},
		{
			"doubleSided":true,
			"extensions":{
				"KHR_materials_specular":{
					"specularColorFactor":[
						0,
						0,
						0
					]
				},
				"KHR_materials_ior":{
					"ior":1.4500000476837158
				}
			},
			"name":"0001",
			"pbrMetallicRoughness":{
				"baseColorTexture":{
					"index":1
				},
				"metallicFactor":0,
				"roughnessFactor":0.9683772325515747
			}
		},
		{
			"doubleSided":true,
			"extensions":{
				"KHR_materials_specular":{
					"specularColorFactor":[
						0,
						0,
						0
					]
				},
				"KHR_materials_ior":{
					"ior":1.4500000476837158
				}
			},
			"name":"0002",
			"pbrMetallicRoughness":{
				"baseColorTexture":{
					"index":2
				},
				"metallicFactor":0,
				"roughnessFactor":0.9683772325515747
			}
		},
		{
			"doubleSided":true,
			"extensions":{
				"KHR_materials_specular":{
					"specularColorFactor":[
						0,
						0,
						0
					]
				},
				"KHR_materials_ior":{
					"ior":1.4500000476837158
				}
			},
			"name":"0003",
			"pbrMetallicRoughness":{
				"baseColorTexture":{
					"index":3
				},
				"metallicFactor":0,
				"roughnessFactor":0.9683772325515747
			}
		},
		{
			"doubleSided":true,
			"extensions":{
				"KHR_materials_specular":{
					"specularColorFactor":[
						0,
						0,
						0
					]
				},
				"KHR_materials_ior":{
					"ior":1.4500000476837158
				}
			},
			"name":"0004",
			"pbrMetallicRoughness":{
				"baseColorTexture":{
					"index":4
				},
				"metallicFactor":0,
				"roughnessFactor":0.9683772325515747
			}
		},
		{
			"doubleSided":true,
			"extensions":{
				"KHR_materials_specular":{
					"specularColorFactor":[
						0,
						0,
						0
					]
				},
				"KHR_materials_ior":{
					"ior":1.4500000476837158
				}
			},
			"name":"0005",
			"pbrMetallicRoughness":{
				"baseColorTexture":{
					"index":5
				},
				"metallicFactor":0,
				"roughnessFactor":0.9683772325515747
			}
		},
		{
			"doubleSided":true,
			"extensions":{
				"KHR_materials_specular":{
					"specularColorFactor":[
						0,
						0,
						0
					]
				},
				"KHR_materials_ior":{
					"ior":1.4500000476837158
				}
			},
			"name":"0006",
			"pbrMetallicRoughness":{
				"baseColorTexture":{
					"index":6
				},
				"metallicFactor":0,
				"roughnessFactor":0.9683772325515747
			}
		},
		{
			"doubleSided":true,
			"extensions":{
				"KHR_materials_specular":{
					"specularColorFactor":[
						0,
						0,
						0
					]
				},
				"KHR_materials_ior":{
					"ior":1.4500000476837158
				}
			},
			"name":"0007",
			"pbrMetallicRoughness":{
				"baseColorTexture":{
					"index":7
				},
				"metallicFactor":0,
				"roughnessFactor":0.9683772325515747
			}
		},
		{
			"doubleSided":true,
			"extensions":{
				"KHR_materials_specular":{
					"specularColorFactor":[
						0,
						0,
						0
					]
				},
				"KHR_materials_ior":{
					"ior":1.4500000476837158
				}
			},
			"name":"0008",
			"pbrMetallicRoughness":{
				"baseColorTexture":{
					"index":8
				},
				"metallicFactor":0,
				"roughnessFactor":0.9683772325515747
			}
		},
		{
			"doubleSided":true,
			"extensions":{
				"KHR_materials_specular":{
					"specularColorFactor":[
						0,
						0,
						0
					]
				},
				"KHR_materials_ior":{
					"ior":1.4500000476837158
				}
			},
			"name":"0009",
			"pbrMetallicRoughness":{
				"baseColorTexture":{
					"index":9
				},
				"metallicFactor":0,
				"roughnessFactor":0.9683772325515747
			}
		},
		{
			"doubleSided":true,
			"name":"Material.002",
			"pbrMetallicRoughness":{
				"baseColorFactor":[
					0.8000000715255737,
					0.5920925140380859,
					0.42621973156929016,
					1
				],
				"metallicFactor":0,
				"roughnessFactor":0.5
			}
		},
		{
			"doubleSided":true,
			"name":"Material.003",
			"pbrMetallicRoughness":{
				"baseColorFactor":[
					0.8000000715255737,
					0.5920925140380859,
					0.42621973156929016,
					1
				],
				"metallicFactor":0,
				"roughnessFactor":0.5
			}
		},
		{
			"doubleSided":true,
			"name":"Material.004",
			"pbrMetallicRoughness":{
				"baseColorFactor":[
					0.8000000715255737,
					0.5920925140380859,
					0.42621973156929016,
					1
				],
				"metallicFactor":0,
				"roughnessFactor":0.5
			}
		}
	],
	"meshes":[
		{
			"name":"TexturedMeshSimplified",
			"primitives":[
				{
					"attributes":{
						"POSITION":0,
						"TEXCOORD_0":1,
						"NORMAL":2
					},
					"indices":3,
					"material":0
				},
				{
					"attributes":{
						"POSITION":4,
						"TEXCOORD_0":5,
						"NORMAL":6
					},
					"indices":7,
					"material":1
				},
				{
					"attributes":{
						"POSITION":8,
						"TEXCOORD_0":9,
						"NORMAL":10
					},
					"indices":11,
					"material":2
				},
				{
					"attributes":{
						"POSITION":12,
						"TEXCOORD_0":13,
						"NORMAL":14
					},
					"indices":15,
					"material":3
				},
				{
					"attributes":{
						"POSITION":16,
						"TEXCOORD_0":17,
						"NORMAL":18
					},
					"indices":19,
					"material":4
				},
				{
					"attributes":{
						"POSITION":20,
						"TEXCOORD_0":21,
						"NORMAL":22
					},
					"indices":23,
					"material":5
				},
				{
					"attributes":{
						"POSITION":24,
						"TEXCOORD_0":25,
						"NORMAL":26
					},
					"indices":27,
					"material":6
				},
				{
					"attributes":{
						"POSITION":28,
						"TEXCOORD_0":29,
						"NORMAL":30
					},
					"indices":31,
					"material":7
				},
				{
					"attributes":{
						"POSITION":32,
						"TEXCOORD_0":33,
						"NORMAL":34
					},
					"indices":35,
					"material":8
				},
				{
					"attributes":{
						"POSITION":36,
						"TEXCOORD_0":37,
						"NORMAL":38
					},
					"indices":39,
					"material":9
				}
			]
		},
		{
			"name":"Icosphere",
			"primitives":[
				{
					"attributes":{
						"POSITION":40,
						"TEXCOORD_0":41,
						"NORMAL":42
					},
					"indices":43,
					"material":10
				}
			]
		},
		{
			"name":"Icosphere.001",
			"primitives":[
				{
					"attributes":{
						"POSITION":44,
						"TEXCOORD_0":45,
						"NORMAL":46
					},
					"indices":43,
					"material":11
				}
			]
		},
		{
			"name":"Icosphere.003",
			"primitives":[
				{
					"attributes":{
						"POSITION":47,
						"TEXCOORD_0":48,
						"NORMAL":49
					},
					"indices":43,
					"material":12
				}
			]
		}
	],
	"textures":[
		{
			"sampler":0,
			"source":0
		},
		{
			"sampler":0,
			"source":1
		},
		{
			"sampler":0,
			"source":2
		},
		{
			"sampler":0,
			"source":3
		},
		{
			"sampler":0,
			"source":4
		},
		{
			"sampler":0,
			"source":5
		},
		{
			"sampler":0,
			"source":6
		},
		{
			"sampler":0,
			"source":7
		},
		{
			"sampler":0,
			"source":8
		},
		{
			"sampler":0,
			"source":9
		}
	],
	"images":[
		{
			"bufferView":4,
			"mimeType":"image/jpeg",
			"name":"TexturedMeshSimplified_0000_map_Kd"
		},
		{
			"bufferView":9,
			"mimeType":"image/jpeg",
			"name":"TexturedMeshSimplified_0001_map_Kd"
		},
		{
			"bufferView":14,
			"mimeType":"image/jpeg",
			"name":"TexturedMeshSimplified_0002_map_Kd"
		},
		{
			"bufferView":19,
			"mimeType":"image/jpeg",
			"name":"TexturedMeshSimplified_0003_map_Kd"
		},
		{
			"bufferView":24,
			"mimeType":"image/jpeg",
			"name":"TexturedMeshSimplified_0004_map_Kd"
		},
		{
			"bufferView":29,
			"mimeType":"image/jpeg",
			"name":"TexturedMeshSimplified_0005_map_Kd"
		},
		{
			"bufferView":34,
			"mimeType":"image/jpeg",
			"name":"TexturedMeshSimplified_0006_map_Kd"
		},
		{
			"bufferView":39,
			"mimeType":"image/jpeg",
			"name":"TexturedMeshSimplified_0007_map_Kd"
		},
		{
			"bufferView":44,
			"mimeType":"image/jpeg",
			"name":"TexturedMeshSimplified_0008_map_Kd"
		},
		{
			"bufferView":49,
			"mimeType":"image/jpeg",
			"name":"TexturedMeshSimplified_0009_map_Kd"
		}
	],
	"accessors":[
		{
			"bufferView":0,
			"componentType":5126,
			"count":7212,
			"max":[
				3.3550000190734863,
				1.3942890167236328,
				1.2988280057907104
			],
			"min":[
				-0.6449999809265137,
				-2.4549999237060547,
				0.4434730112552643
			],
			"type":"VEC3"
		},
		{
			"bufferView":1,
			"componentType":5126,
			"count":7212,
			"type":"VEC2"
		},
		{
			"bufferView":2,
			"componentType":5126,
			"count":7212,
			"type":"VEC3"
		},
		{
			"bufferView":3,
			"componentType":5123,
			"count":34203,
			"type":"SCALAR"
		},
		{
			"bufferView":5,
			"componentType":5126,
			"count":23733,
			"max":[
				3.3550000190734863,
				1.465000033378601,
				1.309620976448059
			],
			"min":[
				-0.7171149849891663,
				-3.115000009536743,
				0.42500001192092896
			],
			"type":"VEC3"
		},
		{
			"bufferView":6,
			"componentType":5126,
			"count":23733,
			"type":"VEC2"
		},
		{
			"bufferView":7,
			"componentType":5126,
			"count":23733,
			"type":"VEC3"
		},
		{
			"bufferView":8,
			"componentType":5123,
			"count":104169,
			"type":"SCALAR"
		},
		{
			"bufferView":10,
			"componentType":5126,
			"count":1576,
			"max":[
				3.365000009536743,
				1.524999976158142,
				1.3109569549560547
			],
			"min":[
				-0.875,
				-2.9997799396514893,
				0.4749999940395355
			],
			"type":"VEC3"
		},
		{
			"bufferView":11,
			"componentType":5126,
			"count":1576,
			"type":"VEC2"
		},
		{
			"bufferView":12,
			"componentType":5126,
			"count":1576,
			"type":"VEC3"
		},
		{
			"bufferView":13,
			"componentType":5123,
			"count":3231,
			"type":"SCALAR"
		},
		{
			"bufferView":15,
			"componentType":5126,
			"count":693,
			"max":[
				3.3350000381469727,
				1.4049999713897705,
				1.303468942642212
			],
			"min":[
				-0.8450000286102295,
				-2.744999885559082,
				0.8149999976158142
			],
			"type":"VEC3"
		},
		{
			"bufferView":16,
			"componentType":5126,
			"count":693,
			"type":"VEC2"
		},
		{
			"bufferView":17,
			"componentType":5126,
			"count":693,
			"type":"VEC3"
		},
		{
			"bufferView":18,
			"componentType":5123,
			"count":1299,
			"type":"SCALAR"
		},
		{
			"bufferView":20,
			"componentType":5126,
			"count":547,
			"max":[
				3.3949999809265137,
				1.4850000143051147,
				1.3049490451812744
			],
			"min":[
				-0.875,
				-2.8350000381469727,
				1.1342480182647705
			],
			"type":"VEC3"
		},
		{
			"bufferView":21,
			"componentType":5126,
			"count":547,
			"type":"VEC2"
		},
		{
			"bufferView":22,
			"componentType":5126,
			"count":547,
			"type":"VEC3"
		},
		{
			"bufferView":23,
			"componentType":5123,
			"count":780,
			"type":"SCALAR"
		},
		{
			"bufferView":25,
			"componentType":5126,
			"count":529,
			"max":[
				3.2850000858306885,
				1.3250000476837158,
				1.3027679920196533
			],
			"min":[
				-0.8349999785423279,
				-3.0701560974121094,
				1.1349999904632568
			],
			"type":"VEC3"
		},
		{
			"bufferView":26,
			"componentType":5126,
			"count":529,
			"type":"VEC2"
		},
		{
			"bufferView":27,
			"componentType":5126,
			"count":529,
			"type":"VEC3"
		},
		{
			"bufferView":28,
			"componentType":5123,
			"count":567,
			"type":"SCALAR"
		},
		{
			"bufferView":30,
			"componentType":5126,
			"count":602,
			"max":[
				3.305000066757202,
				1.3849999904632568,
				1.2953829765319824
			],
			"min":[
				-0.7749999761581421,
				-2.875,
				1.137943983078003
			],
			"type":"VEC3"
		},
		{
			"bufferView":31,
			"componentType":5126,
			"count":602,
			"type":"VEC2"
		},
		{
			"bufferView":32,
			"componentType":5126,
			"count":602,
			"type":"VEC3"
		},
		{
			"bufferView":33,
			"componentType":5123,
			"count":783,
			"type":"SCALAR"
		},
		{
			"bufferView":35,
			"componentType":5126,
			"count":685,
			"max":[
				3.375,
				1.434999942779541,
				1.3073270320892334
			],
			"min":[
				-0.7950000166893005,
				-3.0250000953674316,
				1.13270902633667
			],
			"type":"VEC3"
		},
		{
			"bufferView":36,
			"componentType":5126,
			"count":685,
			"type":"VEC2"
		},
		{
			"bufferView":37,
			"componentType":5126,
			"count":685,
			"type":"VEC3"
		},
		{
			"bufferView":38,
			"componentType":5123,
			"count":831,
			"type":"SCALAR"
		},
		{
			"bufferView":40,
			"componentType":5126,
			"count":768,
			"max":[
				3.2163660526275635,
				1.4149999618530273,
				1.2763780355453491
			],
			"min":[
				-0.7328479886054993,
				-2.234999895095825,
				1.1596120595932007
			],
			"type":"VEC3"
		},
		{
			"bufferView":41,
			"componentType":5126,
			"count":768,
			"type":"VEC2"
		},
		{
			"bufferView":42,
			"componentType":5126,
			"count":768,
			"type":"VEC3"
		},
		{
			"bufferView":43,
			"componentType":5123,
			"count":768,
			"type":"SCALAR"
		},
		{
			"bufferView":45,
			"componentType":5126,
			"count":675,
			"max":[
				3.315000057220459,
				1.4450000524520874,
				1.2949999570846558
			],
			"min":[
				-0.7149999737739563,
				-3.0250000953674316,
				1.1513149738311768
			],
			"type":"VEC3"
		},
		{
			"bufferView":46,
			"componentType":5126,
			"count":675,
			"type":"VEC2"
		},
		{
			"bufferView":47,
			"componentType":5126,
			"count":675,
			"type":"VEC3"
		},
		{
			"bufferView":48,
			"componentType":5123,
			"count":693,
			"type":"SCALAR"
		},
		{
			"bufferView":50,
			"componentType":5126,
			"count":240,
			"max":[
				0.9510578513145447,
				1,
				0.9999999403953552
			],
			"min":[
				-0.9510578513145447,
				-1,
				-0.9999999403953552
			],
			"type":"VEC3"
		},
		{
			"bufferView":51,
			"componentType":5126,
			"count":240,
			"type":"VEC2"
		},
		{
			"bufferView":52,
			"componentType":5126,
			"count":240,
			"type":"VEC3"
		},
		{
			"bufferView":53,
			"componentType":5123,
			"count":240,
			"type":"SCALAR"
		},
		{
			"bufferView":54,
			"componentType":5126,
			"count":240,
			"max":[
				0.9510578513145447,
				1,
				0.9999999403953552
			],
			"min":[
				-0.9510578513145447,
				-1,
				-0.9999999403953552
			],
			"type":"VEC3"
		},
		{
			"bufferView":55,
			"componentType":5126,
			"count":240,
			"type":"VEC2"
		},
		{
			"bufferView":56,
			"componentType":5126,
			"count":240,
			"type":"VEC3"
		},
		{
			"bufferView":57,
			"componentType":5126,
			"count":240,
			"max":[
				0.9510578513145447,
				1,
				0.9999999403953552
			],
			"min":[
				-0.9510578513145447,
				-1,
				-0.9999999403953552
			],
			"type":"VEC3"
		},
		{
			"bufferView":58,
			"componentType":5126,
			"count":240,
			"type":"VEC2"
		},
		{
			"bufferView":59,
			"componentType":5126,
			"count":240,
			"type":"VEC3"
		}
	],
	"bufferViews":[
		{
			"buffer":0,
			"byteLength":86544,
			"byteOffset":0,
			"target":34962
		},
		{
			"buffer":0,
			"byteLength":57696,
			"byteOffset":86544,
			"target":34962
		},
		{
			"buffer":0,
			"byteLength":86544,
			"byteOffset":144240,
			"target":34962
		},
		{
			"buffer":0,
			"byteLength":68406,
			"byteOffset":230784,
			"target":34963
		},
		{
			"buffer":0,
			"byteLength":628761,
			"byteOffset":299192
		},
		{
			"buffer":0,
			"byteLength":284796,
			"byteOffset":927956,
			"target":34962
		},
		{
			"buffer":0,
			"byteLength":189864,
			"byteOffset":1212752,
			"target":34962
		},
		{
			"buffer":0,
			"byteLength":284796,
			"byteOffset":1402616,
			"target":34962
		},
		{
			"buffer":0,
			"byteLength":208338,
			"byteOffset":1687412,
			"target":34963
		},
		{
			"buffer":0,
			"byteLength":624189,
			"byteOffset":1895752
		},
		{
			"buffer":0,
			"byteLength":18912,
			"byteOffset":2519944,
			"target":34962
		},
		{
			"buffer":0,
			"byteLength":12608,
			"byteOffset":2538856,
			"target":34962
		},
		{
			"buffer":0,
			"byteLength":18912,
			"byteOffset":2551464,
			"target":34962
		},
		{
			"buffer":0,
			"byteLength":6462,
			"byteOffset":2570376,
			"target":34963
		},
		{
			"buffer":0,
			"byteLength":32361,
			"byteOffset":2576840
		},
		{
			"buffer":0,
			"byteLength":8316,
			"byteOffset":2609204,
			"target":34962
		},
		{
			"buffer":0,
			"byteLength":5544,
			"byteOffset":2617520,
			"target":34962
		},
		{
			"buffer":0,
			"byteLength":8316,
			"byteOffset":2623064,
			"target":34962
		},
		{
			"buffer":0,
			"byteLength":2598,
			"byteOffset":2631380,
			"target":34963
		},
		{
			"buffer":0,
			"byteLength":9514,
			"byteOffset":2633980
		},
		{
			"buffer":0,
			"byteLength":6564,
			"byteOffset":2643496,
			"target":34962
		},
		{
			"buffer":0,
			"byteLength":4376,
			"byteOffset":2650060,
			"target":34962
		},
		{
			"buffer":0,
			"byteLength":6564,
			"byteOffset":2654436,
			"target":34962
		},
		{
			"buffer":0,
			"byteLength":1560,
			"byteOffset":2661000,
			"target":34963
		},
		{
			"buffer":0,
			"byteLength":9880,
			"byteOffset":2662560
		},
		{
			"buffer":0,
			"byteLength":6348,
			"byteOffset":2672440,
			"target":34962
		},
		{
			"buffer":0,
			"byteLength":4232,
			"byteOffset":2678788,
			"target":34962
		},
		{
			"buffer":0,
			"byteLength":6348,
			"byteOffset":2683020,
			"target":34962
		},
		{
			"buffer":0,
			"byteLength":1134,
			"byteOffset":2689368,
			"target":34963
		},
		{
			"buffer":0,
			"byteLength":9264,
			"byteOffset":2690504
		},
		{
			"buffer":0,
			"byteLength":7224,
			"byteOffset":2699768,
			"target":34962
		},
		{
			"buffer":0,
			"byteLength":4816,
			"byteOffset":2706992,
			"target":34962
		},
		{
			"buffer":0,
			"byteLength":7224,
			"byteOffset":2711808,
			"target":34962
		},
		{
			"buffer":0,
			"byteLength":1566,
			"byteOffset":2719032,
			"target":34963
		},
		{
			"buffer":0,
			"byteLength":9792,
			"byteOffset":2720600
		},
		{
			"buffer":0,
			"byteLength":8220,
			"byteOffset":2730392,
			"target":34962
		},
		{
			"buffer":0,
			"byteLength":5480,
			"byteOffset":2738612,
			"target":34962
		},
		{
			"buffer":0,
			"byteLength":8220,
			"byteOffset":2744092,
			"target":34962
		},
		{
			"buffer":0,
			"byteLength":1662,
			"byteOffset":2752312,
			"target":34963
		},
		{
			"buffer":0,
			"byteLength":9757,
			"byteOffset":2753976
		},
		{
			"buffer":0,
			"byteLength":9216,
			"byteOffset":2763736,
			"target":34962
		},
		{
			"buffer":0,
			"byteLength":6144,
			"byteOffset":2772952,
			"target":34962
		},
		{
			"buffer":0,
			"byteLength":9216,
			"byteOffset":2779096,
			"target":34962
		},
		{
			"buffer":0,
			"byteLength":1536,
			"byteOffset":2788312,
			"target":34963
		},
		{
			"buffer":0,
			"byteLength":9283,
			"byteOffset":2789848
		},
		{
			"buffer":0,
			"byteLength":8100,
			"byteOffset":2799132,
			"target":34962
		},
		{
			"buffer":0,
			"byteLength":5400,
			"byteOffset":2807232,
			"target":34962
		},
		{
			"buffer":0,
			"byteLength":8100,
			"byteOffset":2812632,
			"target":34962
		},
		{
			"buffer":0,
			"byteLength":1386,
			"byteOffset":2820732,
			"target":34963
		},
		{
			"buffer":0,
			"byteLength":8777,
			"byteOffset":2822120
		},
		{
			"buffer":0,
			"byteLength":2880,
			"byteOffset":2830900,
			"target":34962
		},
		{
			"buffer":0,
			"byteLength":1920,
			"byteOffset":2833780,
			"target":34962
		},
		{
			"buffer":0,
			"byteLength":2880,
			"byteOffset":2835700,
			"target":34962
		},
		{
			"buffer":0,
			"byteLength":480,
			"byteOffset":2838580,
			"target":34963
		},
		{
			"buffer":0,
			"byteLength":2880,
			"byteOffset":2839060,
			"target":34962
		},
		{
			"buffer":0,
			"byteLength":1920,
			"byteOffset":2841940,
			"target":34962
		},
		{
			"buffer":0,
			"byteLength":2880,
			"byteOffset":2843860,
			"target":34962
		},
		{
			"buffer":0,
			"byteLength":2880,
			"byteOffset":2846740,
			"target":34962
		},
		{
			"buffer":0,
			"byteLength":1920,
			"byteOffset":2849620,
			"target":34962
		},
		{
			"buffer":0,
			"byteLength":2880,
			"byteOffset":2851540,
			"target":34962
		}
	],
	"samplers":[
		{
			"magFilter":9729,
			"minFilter":9987
		}
	],
	"buffers":[
		{
			"byteLength":2854420,
			"uri":"data:application/octet-stream;base64,"
		}
	]
}
