{
	"asset":{
		"generator":"Khronos glTF Blender I/O v3.5.30",
		"version":"2.0"
	},
	"scene":0,
	"scenes":[
		{
			"name":"Scene",
			"nodes":[
				0,
				1,
				2,
				3
			]
		}
	],
	"nodes":[
		{
			"mesh":0,
			"name":"Plane",
			"rotation":[
				0.15839864313602448,
				-0.15839864313602448,
				-0.6891370415687561,
				0.6891371011734009
			],
			"scale":[
				2.1371352672576904,
				4.565088748931885,
				2.898361921310425
			],
			"translation":[
				-14.58333969116211,
				0.5074541568756104,
				-11.564630508422852
			]
		},
		{
			"mesh":1,
			"name":"Torus.001",
			"scale":[
				1.0704894065856934,
				1.0704894065856934,
				1.0704894065856934
			],
			"translation":[
				-11.73413372039795,
				2.5395920276641846,
				-10.240361213684082
			]
		},
		{
			"mesh":2,
			"name":"Cylinder",
			"rotation":[
				0.15435470640659332,
				-0.15435470640659332,
				-0.6900540590286255,
				0.690054178237915
			],
			"translation":[
				0.8308897018432617,
				1.7987200021743774,
				4.476082801818848
			]
		},
		{
			"mesh":3,
			"name":"Cylinder.001",
			"rotation":[
				0.15435470640659332,
				-0.15435470640659332,
				-0.6900540590286255,
				0.690054178237915
			],
			"translation":[
				8.292819023132324,
				0.8583036065101624,
				-9.90099811553955
			]
		}
	],
	"animations":[
		{
			"channels":[
				{
					"sampler":0,
					"target":{
						"node":0,
						"path":"translation"
					}
				},
				{
					"sampler":1,
					"target":{
						"node":0,
						"path":"rotation"
					}
				},
				{
					"sampler":2,
					"target":{
						"node":0,
						"path":"scale"
					}
				}
			],
			"name":"Plane",
			"samplers":[
				{
					"input":15,
					"interpolation":"LINEAR",
					"output":16
				},
				{
					"input":15,
					"interpolation":"LINEAR",
					"output":17
				},
				{
					"input":15,
					"interpolation":"LINEAR",
					"output":18
				}
			]
		},
		{
			"channels":[
				{
					"sampler":0,
					"target":{
						"node":1,
						"path":"translation"
					}
				},
				{
					"sampler":1,
					"target":{
						"node":1,
						"path":"rotation"
					}
				},
				{
					"sampler":2,
					"target":{
						"node":1,
						"path":"scale"
					}
				}
			],
			"name":"Torus.001",
			"samplers":[
				{
					"input":15,
					"interpolation":"LINEAR",
					"output":19
				},
				{
					"input":15,
					"interpolation":"LINEAR",
					"output":20
				},
				{
					"input":15,
					"interpolation":"LINEAR",
					"output":21
				}
			]
		},
		{
			"channels":[
				{
					"sampler":0,
					"target":{
						"node":2,
						"path":"translation"
					}
				},
				{
					"sampler":1,
					"target":{
						"node":2,
						"path":"rotation"
					}
				},
				{
					"sampler":2,
					"target":{
						"node":2,
						"path":"scale"
					}
				}
			],
			"name":"Cylinder",
			"samplers":[
				{
					"input":15,
					"interpolation":"LINEAR",
					"output":22
				},
				{
					"input":15,
					"interpolation":"LINEAR",
					"output":23
				},
				{
					"input":15,
					"interpolation":"LINEAR",
					"output":24
				}
			]
		},
		{
			"channels":[
				{
					"sampler":0,
					"target":{
						"node":3,
						"path":"translation"
					}
				},
				{
					"sampler":1,
					"target":{
						"node":3,
						"path":"rotation"
					}
				},
				{
					"sampler":2,
					"target":{
						"node":3,
						"path":"scale"
					}
				}
			],
			"name":"Cylinder.001",
			"samplers":[
				{
					"input":15,
					"interpolation":"LINEAR",
					"output":25
				},
				{
					"input":15,
					"interpolation":"LINEAR",
					"output":26
				},
				{
					"input":15,
					"interpolation":"LINEAR",
					"output":27
				}
			]
		}
	],
	"materials":[
		{
			"doubleSided":true,
			"name":"Material.003",
			"pbrMetallicRoughness":{
				"baseColorTexture":{
					"index":0
				},
				"metallicFactor":0,
				"roughnessFactor":0.5
			}
		},
		{
			"doubleSided":true,
			"name":"Material.002",
			"pbrMetallicRoughness":{
				"baseColorTexture":{
					"index":1
				},
				"metallicFactor":0,
				"roughnessFactor":0.5
			}
		},
		{
			"doubleSided":true,
			"name":"Material.001",
			"pbrMetallicRoughness":{
				"baseColorTexture":{
					"index":2
				},
				"metallicFactor":0,
				"roughnessFactor":0.5
			}
		},
		{
			"doubleSided":true,
			"name":"Material",
			"pbrMetallicRoughness":{
				"baseColorTexture":{
					"index":3
				},
				"metallicFactor":0,
				"roughnessFactor":0.5
			}
		}
	],
	"meshes":[
		{
			"name":"Plane",
			"primitives":[
				{
					"attributes":{
						"POSITION":0,
						"TEXCOORD_0":1,
						"NORMAL":2
					},
					"indices":3,
					"material":0
				}
			]
		},
		{
			"name":"Torus.001",
			"primitives":[
				{
					"attributes":{
						"POSITION":4,
						"TEXCOORD_0":5,
						"NORMAL":6
					},
					"indices":7,
					"material":1
				}
			]
		},
		{
			"name":"Cylinder.001",
			"primitives":[
				{
					"attributes":{
						"POSITION":8,
						"TEXCOORD_0":9,
						"NORMAL":10
					},
					"indices":11,
					"material":2
				}
			]
		},
		{
			"name":"Cylinder.002",
			"primitives":[
				{
					"attributes":{
						"POSITION":12,
						"TEXCOORD_0":13,
						"NORMAL":14
					},
					"indices":11,
					"material":3
				}
			]
		}
	],
	"textures":[
		{
			"sampler":0,
			"source":0
		},
		{
			"sampler":0,
			"source":0
		},
		{
			"sampler":0,
			"source":0
		},
		{
			"sampler":0,
			"source":0
		}
	],
	"images":[
		{
			"bufferView":4,
			"mimeType":"image/png",
			"name":"Screenshot 2023-06-07 150853"
		}
	],
	"accessors":[
		{
			"bufferView":0,
			"componentType":5126,
			"count":4,
			"max":[
				1,
				0,
				1
			],
			"min":[
				-1,
				0,
				-1
			],
			"type":"VEC3"
		},
		{
			"bufferView":1,
			"componentType":5126,
			"count":4,
			"type":"VEC2"
		},
		{
			"bufferView":2,
			"componentType":5126,
			"count":4,
			"type":"VEC3"
		},
		{
			"bufferView":3,
			"componentType":5123,
			"count":6,
			"type":"SCALAR"
		},
		{
			"bufferView":5,
			"componentType":5126,
			"count":2304,
			"max":[
				4.150000095367432,
				0.15000000596046448,
				4.150000095367432
			],
			"min":[
				-4.150000095367432,
				-0.15000000596046448,
				-4.150000095367432
			],
			"type":"VEC3"
		},
		{
			"bufferView":6,
			"componentType":5126,
			"count":2304,
			"type":"VEC2"
		},
		{
			"bufferView":7,
			"componentType":5126,
			"count":2304,
			"type":"VEC3"
		},
		{
			"bufferView":8,
			"componentType":5123,
			"count":3456,
			"type":"SCALAR"
		},
		{
			"bufferView":9,
			"componentType":5126,
			"count":386,
			"max":[
				0.15000653266906738,
				6,
				0.15000000596046448
			],
			"min":[
				-0.15000000596046448,
				-16.25310516357422,
				-0.15000000596046448
			],
			"type":"VEC3"
		},
		{
			"bufferView":10,
			"componentType":5126,
			"count":386,
			"type":"VEC2"
		},
		{
			"bufferView":11,
			"componentType":5126,
			"count":386,
			"type":"VEC3"
		},
		{
			"bufferView":12,
			"componentType":5123,
			"count":756,
			"type":"SCALAR"
		},
		{
			"bufferView":13,
			"componentType":5126,
			"count":386,
			"max":[
				0.15000653266906738,
				6,
				0.15000000596046448
			],
			"min":[
				-0.15000000596046448,
				-16.25310516357422,
				-0.15000000596046448
			],
			"type":"VEC3"
		},
		{
			"bufferView":14,
			"componentType":5126,
			"count":386,
			"type":"VEC2"
		},
		{
			"bufferView":15,
			"componentType":5126,
			"count":386,
			"type":"VEC3"
		},
		{
			"bufferView":16,
			"componentType":5126,
			"count":2,
			"max":[
				0.08333333333333333
			],
			"min":[
				0.041666666666666664
			],
			"type":"SCALAR"
		},
		{
			"bufferView":17,
			"componentType":5126,
			"count":2,
			"type":"VEC3"
		},
		{
			"bufferView":18,
			"componentType":5126,
			"count":2,
			"type":"VEC4"
		},
		{
			"bufferView":19,
			"componentType":5126,
			"count":2,
			"type":"VEC3"
		},
		{
			"bufferView":20,
			"componentType":5126,
			"count":2,
			"type":"VEC3"
		},
		{
			"bufferView":21,
			"componentType":5126,
			"count":2,
			"type":"VEC4"
		},
		{
			"bufferView":22,
			"componentType":5126,
			"count":2,
			"type":"VEC3"
		},
		{
			"bufferView":23,
			"componentType":5126,
			"count":2,
			"type":"VEC3"
		},
		{
			"bufferView":24,
			"componentType":5126,
			"count":2,
			"type":"VEC4"
		},
		{
			"bufferView":25,
			"componentType":5126,
			"count":2,
			"type":"VEC3"
		},
		{
			"bufferView":26,
			"componentType":5126,
			"count":2,
			"type":"VEC3"
		},
		{
			"bufferView":27,
			"componentType":5126,
			"count":2,
			"type":"VEC4"
		},
		{
			"bufferView":28,
			"componentType":5126,
			"count":2,
			"type":"VEC3"
		}
	],
	"bufferViews":[
		{
			"buffer":0,
			"byteLength":48,
			"byteOffset":0,
			"target":34962
		},
		{
			"buffer":0,
			"byteLength":32,
			"byteOffset":48,
			"target":34962
		},
		{
			"buffer":0,
			"byteLength":48,
			"byteOffset":80,
			"target":34962
		},
		{
			"buffer":0,
			"byteLength":12,
			"byteOffset":128,
			"target":34963
		},
		{
			"buffer":0,
			"byteLength":738655,
			"byteOffset":140
		},
		{
			"buffer":0,
			"byteLength":27648,
			"byteOffset":738796,
			"target":34962
		},
		{
			"buffer":0,
			"byteLength":18432,
			"byteOffset":766444,
			"target":34962
		},
		{
			"buffer":0,
			"byteLength":27648,
			"byteOffset":784876,
			"target":34962
		},
		{
			"buffer":0,
			"byteLength":6912,
			"byteOffset":812524,
			"target":34963
		},
		{
			"buffer":0,
			"byteLength":4632,
			"byteOffset":819436,
			"target":34962
		},
		{
			"buffer":0,
			"byteLength":3088,
			"byteOffset":824068,
			"target":34962
		},
		{
			"buffer":0,
			"byteLength":4632,
			"byteOffset":827156,
			"target":34962
		},
		{
			"buffer":0,
			"byteLength":1512,
			"byteOffset":831788,
			"target":34963
		},
		{
			"buffer":0,
			"byteLength":4632,
			"byteOffset":833300,
			"target":34962
		},
		{
			"buffer":0,
			"byteLength":3088,
			"byteOffset":837932,
			"target":34962
		},
		{
			"buffer":0,
			"byteLength":4632,
			"byteOffset":841020,
			"target":34962
		},
		{
			"buffer":0,
			"byteLength":8,
			"byteOffset":845652
		},
		{
			"buffer":0,
			"byteLength":24,
			"byteOffset":845660
		},
		{
			"buffer":0,
			"byteLength":32,
			"byteOffset":845684
		},
		{
			"buffer":0,
			"byteLength":24,
			"byteOffset":845716
		},
		{
			"buffer":0,
			"byteLength":24,
			"byteOffset":845740
		},
		{
			"buffer":0,
			"byteLength":32,
			"byteOffset":845764
		},
		{
			"buffer":0,
			"byteLength":24,
			"byteOffset":845796
		},
		{
			"buffer":0,
			"byteLength":24,
			"byteOffset":845820
		},
		{
			"buffer":0,
			"byteLength":32,
			"byteOffset":845844
		},
		{
			"buffer":0,
			"byteLength":24,
			"byteOffset":845876
		},
		{
			"buffer":0,
			"byteLength":24,
			"byteOffset":845900
		},
		{
			"buffer":0,
			"byteLength":32,
			"byteOffset":845924
		},
		{
			"buffer":0,
			"byteLength":24,
			"byteOffset":845956
		}
	],
	"samplers":[
		{
			"magFilter":9729,
			"minFilter":9987
		}
	],
	"buffers":[
		{
			"byteLength":845980,
			"uri":"data:application/octet-stream;base64,"
		}
	]
}
