{
	"asset":{
		"generator":"Khronos glTF Blender I/O v3.5.30",
		"version":"2.0"
	},
	"scene":0,
	"scenes":[
		{
			"name":"Scene",
			"nodes":[
				0
			]
		}
	],
	"nodes":[
		{
			"mesh":0,
			"name":"gcdl1",
			"rotation":[
				0,
				0.529105007648468,
				0,
				0.8485563397407532
			],
			"scale":[
				0.5667723417282104,
				0.5918107628822327,
				0.30126070976257324
			],
			"translation":[
				-12.897967338562012,
				2.3922886848449707,
				-11.114835739135742
			]
		}
	],
	"animations":[
		{
			"channels":[
				{
					"sampler":0,
					"target":{
						"node":0,
						"path":"translation"
					}
				},
				{
					"sampler":1,
					"target":{
						"node":0,
						"path":"rotation"
					}
				},
				{
					"sampler":2,
					"target":{
						"node":0,
						"path":"scale"
					}
				}
			],
			"name":"gcdl1",
			"samplers":[
				{
					"input":12,
					"interpolation":"LINEAR",
					"output":13
				},
				{
					"input":12,
					"interpolation":"LINEAR",
					"output":14
				},
				{
					"input":12,
					"interpolation":"LINEAR",
					"output":15
				}
			]
		}
	],
	"materials":[
		{
			"doubleSided":true,
			"name":"Material-_4Material850.005",
			"pbrMetallicRoughness":{
				"baseColorTexture":{
					"index":0
				},
				"metallicFactor":0,
				"roughnessFactor":0.5
			}
		},
		{
			"doubleSided":true,
			"name":"Material-_4Material850.003",
			"pbrMetallicRoughness":{
				"baseColorTexture":{
					"index":1
				},
				"metallicFactor":0,
				"roughnessFactor":0.5
			}
		},
		{
			"doubleSided":true,
			"name":"Material-_4Material850.004",
			"pbrMetallicRoughness":{
				"baseColorTexture":{
					"index":2
				},
				"metallicFactor":0,
				"roughnessFactor":0.5
			}
		}
	],
	"meshes":[
		{
			"name":"Cloth_Shap.005",
			"primitives":[
				{
					"attributes":{
						"POSITION":0,
						"TEXCOORD_0":1,
						"NORMAL":2
					},
					"indices":3,
					"material":0
				},
				{
					"attributes":{
						"POSITION":4,
						"TEXCOORD_0":5,
						"NORMAL":6
					},
					"indices":7,
					"material":1
				},
				{
					"attributes":{
						"POSITION":8,
						"TEXCOORD_0":9,
						"NORMAL":10
					},
					"indices":11,
					"material":2
				}
			]
		}
	],
	"textures":[
		{
			"sampler":0,
			"source":0
		},
		{
			"sampler":0,
			"source":1
		},
		{
			"sampler":0,
			"source":1
		}
	],
	"images":[
		{
			"bufferView":4,
			"mimeType":"image/jpeg",
			"name":"Fabric_034_basecolor"
		},
		{
			"bufferView":9,
			"mimeType":"image/jpeg",
			"name":"V8_C84"
		}
	],
	"accessors":[
		{
			"bufferView":0,
			"componentType":5126,
			"count":9587,
			"max":[
				3.445378065109253,
				0.6372873783111572,
				1.7577481269836426
			],
			"min":[
				-4.2855987548828125,
				-0.4086192548274994,
				-1.806679368019104
			],
			"type":"VEC3"
		},
		{
			"bufferView":1,
			"componentType":5126,
			"count":9587,
			"type":"VEC2"
		},
		{
			"bufferView":2,
			"componentType":5126,
			"count":9587,
			"type":"VEC3"
		},
		{
			"bufferView":3,
			"componentType":5123,
			"count":55560,
			"type":"SCALAR"
		},
		{
			"bufferView":5,
			"componentType":5126,
			"count":9587,
			"max":[
				5.506290435791016,
				0.9400081038475037,
				8.856329917907715
			],
			"min":[
				-5.897012233734131,
				-0.6027193069458008,
				3.598747730255127
			],
			"type":"VEC3"
		},
		{
			"bufferView":6,
			"componentType":5126,
			"count":9587,
			"type":"VEC2"
		},
		{
			"bufferView":7,
			"componentType":5126,
			"count":9587,
			"type":"VEC3"
		},
		{
			"bufferView":8,
			"componentType":5123,
			"count":55560,
			"type":"SCALAR"
		},
		{
			"bufferView":10,
			"componentType":5126,
			"count":9592,
			"max":[
				3.9380099773406982,
				0.637287437915802,
				14.48525619506836
			],
			"min":[
				-3.792966842651367,
				-0.40861931443214417,
				10.920828819274902
			],
			"type":"VEC3"
		},
		{
			"bufferView":11,
			"componentType":5126,
			"count":9592,
			"type":"VEC2"
		},
		{
			"bufferView":12,
			"componentType":5126,
			"count":9592,
			"type":"VEC3"
		},
		{
			"bufferView":13,
			"componentType":5123,
			"count":55560,
			"type":"SCALAR"
		},
		{
			"bufferView":14,
			"componentType":5126,
			"count":2,
			"max":[
				0.08333333333333333
			],
			"min":[
				0.041666666666666664
			],
			"type":"SCALAR"
		},
		{
			"bufferView":15,
			"componentType":5126,
			"count":2,
			"type":"VEC3"
		},
		{
			"bufferView":16,
			"componentType":5126,
			"count":2,
			"type":"VEC4"
		},
		{
			"bufferView":17,
			"componentType":5126,
			"count":2,
			"type":"VEC3"
		}
	],
	"bufferViews":[
		{
			"buffer":0,
			"byteLength":115044,
			"byteOffset":0,
			"target":34962
		},
		{
			"buffer":0,
			"byteLength":76696,
			"byteOffset":115044,
			"target":34962
		},
		{
			"buffer":0,
			"byteLength":115044,
			"byteOffset":191740,
			"target":34962
		},
		{
			"buffer":0,
			"byteLength":111120,
			"byteOffset":306784,
			"target":34963
		},
		{
			"buffer":0,
			"byteLength":209781,
			"byteOffset":417904
		},
		{
			"buffer":0,
			"byteLength":115044,
			"byteOffset":627688,
			"target":34962
		},
		{
			"buffer":0,
			"byteLength":76696,
			"byteOffset":742732,
			"target":34962
		},
		{
			"buffer":0,
			"byteLength":115044,
			"byteOffset":819428,
			"target":34962
		},
		{
			"buffer":0,
			"byteLength":111120,
			"byteOffset":934472,
			"target":34963
		},
		{
			"buffer":0,
			"byteLength":807517,
			"byteOffset":1045592
		},
		{
			"buffer":0,
			"byteLength":115104,
			"byteOffset":1853112,
			"target":34962
		},
		{
			"buffer":0,
			"byteLength":76736,
			"byteOffset":1968216,
			"target":34962
		},
		{
			"buffer":0,
			"byteLength":115104,
			"byteOffset":2044952,
			"target":34962
		},
		{
			"buffer":0,
			"byteLength":111120,
			"byteOffset":2160056,
			"target":34963
		},
		{
			"buffer":0,
			"byteLength":8,
			"byteOffset":2271176
		},
		{
			"buffer":0,
			"byteLength":24,
			"byteOffset":2271184
		},
		{
			"buffer":0,
			"byteLength":32,
			"byteOffset":2271208
		},
		{
			"buffer":0,
			"byteLength":24,
			"byteOffset":2271240
		}
	],
	"samplers":[
		{
			"magFilter":9729,
			"minFilter":9987
		}
	],
	"buffers":[
		{
			"byteLength":2271264,
			"uri":"data:application/octet-stream;base64,"
		}
	]
}
