{
	"asset":{
		"generator":"Khronos glTF Blender I/O v3.5.30",
		"version":"2.0"
	},
	"scene":0,
	"scenes":[
		{
			"name":"Scene",
			"nodes":[
				0
			]
		}
	],
	"nodes":[
		{
			"mesh":0,
			"name":"gcdl3",
			"scale":[
				0.13162745535373688,
				0.13162745535373688,
				0.13162745535373688
			],
			"translation":[
				-11.248157501220703,
				2.394920587539673,
				-10.203437805175781
			]
		}
	],
	"animations":[
		{
			"channels":[
				{
					"sampler":0,
					"target":{
						"node":0,
						"path":"translation"
					}
				},
				{
					"sampler":1,
					"target":{
						"node":0,
						"path":"rotation"
					}
				},
				{
					"sampler":2,
					"target":{
						"node":0,
						"path":"scale"
					}
				}
			],
			"name":"gcdl3",
			"samplers":[
				{
					"input":4,
					"interpolation":"LINEAR",
					"output":5
				},
				{
					"input":4,
					"interpolation":"LINEAR",
					"output":6
				},
				{
					"input":4,
					"interpolation":"LINEAR",
					"output":7
				}
			]
		}
	],
	"materials":[
		{
			"doubleSided":true,
			"name":"Material-_4Material850.007",
			"pbrMetallicRoughness":{
				"baseColorTexture":{
					"index":0
				},
				"metallicFactor":0,
				"roughnessFactor":0.5
			}
		}
	],
	"meshes":[
		{
			"name":"Cloth_Shap.007",
			"primitives":[
				{
					"attributes":{
						"POSITION":0,
						"TEXCOORD_0":1,
						"NORMAL":2
					},
					"indices":3,
					"material":0
				}
			]
		}
	],
	"textures":[
		{
			"sampler":0,
			"source":0
		}
	],
	"images":[
		{
			"bufferView":4,
			"mimeType":"image/jpeg",
			"name":"Fabric_034_basecolor"
		}
	],
	"accessors":[
		{
			"bufferView":0,
			"componentType":5126,
			"count":19830,
			"max":[
				29.738262176513672,
				10.173054695129395,
				29.479307174682617
			],
			"min":[
				-29.661258697509766,
				-1.505847454071045,
				-29.907413482666016
			],
			"type":"VEC3"
		},
		{
			"bufferView":1,
			"componentType":5126,
			"count":19830,
			"type":"VEC2"
		},
		{
			"bufferView":2,
			"componentType":5126,
			"count":19830,
			"type":"VEC3"
		},
		{
			"bufferView":3,
			"componentType":5123,
			"count":116511,
			"type":"SCALAR"
		},
		{
			"bufferView":5,
			"componentType":5126,
			"count":2,
			"max":[
				0.08333333333333333
			],
			"min":[
				0.041666666666666664
			],
			"type":"SCALAR"
		},
		{
			"bufferView":6,
			"componentType":5126,
			"count":2,
			"type":"VEC3"
		},
		{
			"bufferView":7,
			"componentType":5126,
			"count":2,
			"type":"VEC4"
		},
		{
			"bufferView":8,
			"componentType":5126,
			"count":2,
			"type":"VEC3"
		}
	],
	"bufferViews":[
		{
			"buffer":0,
			"byteLength":237960,
			"byteOffset":0,
			"target":34962
		},
		{
			"buffer":0,
			"byteLength":158640,
			"byteOffset":237960,
			"target":34962
		},
		{
			"buffer":0,
			"byteLength":237960,
			"byteOffset":396600,
			"target":34962
		},
		{
			"buffer":0,
			"byteLength":233022,
			"byteOffset":634560,
			"target":34963
		},
		{
			"buffer":0,
			"byteLength":209781,
			"byteOffset":867584
		},
		{
			"buffer":0,
			"byteLength":8,
			"byteOffset":1077368
		},
		{
			"buffer":0,
			"byteLength":24,
			"byteOffset":1077376
		},
		{
			"buffer":0,
			"byteLength":32,
			"byteOffset":1077400
		},
		{
			"buffer":0,
			"byteLength":24,
			"byteOffset":1077432
		}
	],
	"samplers":[
		{
			"magFilter":9729,
			"minFilter":9987
		}
	],
	"buffers":[
		{
			"byteLength":1077456,
			"uri":"data:application/octet-stream;base64,"
		}
	]
}
