{
	"asset":{
		"generator":"Khronos glTF Blender I/O v3.5.30",
		"version":"2.0"
	},
	"extensionsUsed":[
		"KHR_texture_transform"
	],
	"extensionsRequired":[
		"KHR_texture_transform"
	],
	"scene":0,
	"scenes":[
		{
			"name":"Scene",
			"nodes":[
				0
			]
		}
	],
	"nodes":[
		{
			"mesh":0,
			"name":"Plane.003",
			"rotation":[
				-0.4790768325328827,
				-0.1394759714603424,
				0.8107772469520569,
				0.3060590326786041
			],
			"scale":[
				0.1690436154603958,
				0.15009817481040955,
				0.11611104756593704
			],
			"translation":[
				-8.578865051269531,
				2.4808270931243896,
				-12.3745756149292
			]
		}
	],
	"animations":[
		{
			"channels":[
				{
					"sampler":0,
					"target":{
						"node":0,
						"path":"translation"
					}
				},
				{
					"sampler":1,
					"target":{
						"node":0,
						"path":"rotation"
					}
				},
				{
					"sampler":2,
					"target":{
						"node":0,
						"path":"scale"
					}
				}
			],
			"name":"Plane.003",
			"samplers":[
				{
					"input":38,
					"interpolation":"LINEAR",
					"output":39
				},
				{
					"input":38,
					"interpolation":"LINEAR",
					"output":40
				},
				{
					"input":38,
					"interpolation":"LINEAR",
					"output":41
				}
			]
		}
	],
	"materials":[
		{
			"doubleSided":true,
			"name":"2K_Fabric01.089",
			"pbrMetallicRoughness":{
				"baseColorTexture":{
					"extensions":{
						"KHR_texture_transform":{
							"offset":[
								0,
								-14
							],
							"scale":[
								15,
								15
							]
						}
					},
					"index":0
				},
				"metallicFactor":0,
				"metallicRoughnessTexture":{
					"extensions":{
						"KHR_texture_transform":{
							"offset":[
								0,
								-14
							],
							"scale":[
								15,
								15
							]
						}
					},
					"index":1
				}
			}
		},
		{
			"doubleSided":true,
			"name":"2K_Fabric01.075",
			"pbrMetallicRoughness":{
				"baseColorTexture":{
					"extensions":{
						"KHR_texture_transform":{
							"offset":[
								0,
								-14
							],
							"scale":[
								15,
								15
							]
						}
					},
					"index":2
				},
				"metallicFactor":0,
				"metallicRoughnessTexture":{
					"extensions":{
						"KHR_texture_transform":{
							"offset":[
								0,
								-14
							],
							"scale":[
								15,
								15
							]
						}
					},
					"index":3
				}
			}
		},
		{
			"doubleSided":true,
			"name":"2K_Fabric01.076",
			"pbrMetallicRoughness":{
				"baseColorTexture":{
					"extensions":{
						"KHR_texture_transform":{
							"offset":[
								0,
								-14
							],
							"scale":[
								15,
								15
							]
						}
					},
					"index":4
				},
				"metallicFactor":0,
				"metallicRoughnessTexture":{
					"extensions":{
						"KHR_texture_transform":{
							"offset":[
								0,
								-14
							],
							"scale":[
								15,
								15
							]
						}
					},
					"index":5
				}
			}
		},
		{
			"doubleSided":true,
			"name":"2K_Fabric01.087",
			"pbrMetallicRoughness":{
				"baseColorTexture":{
					"extensions":{
						"KHR_texture_transform":{
							"offset":[
								0,
								-14
							],
							"scale":[
								15,
								15
							]
						}
					},
					"index":6
				},
				"metallicFactor":0,
				"metallicRoughnessTexture":{
					"extensions":{
						"KHR_texture_transform":{
							"offset":[
								0,
								-14
							],
							"scale":[
								15,
								15
							]
						}
					},
					"index":7
				}
			}
		},
		{
			"doubleSided":true,
			"name":"2K_Fabric01.088",
			"pbrMetallicRoughness":{
				"baseColorTexture":{
					"extensions":{
						"KHR_texture_transform":{
							"offset":[
								0,
								-14
							],
							"scale":[
								15,
								15
							]
						}
					},
					"index":8
				},
				"metallicFactor":0,
				"metallicRoughnessTexture":{
					"extensions":{
						"KHR_texture_transform":{
							"offset":[
								0,
								-14
							],
							"scale":[
								15,
								15
							]
						}
					},
					"index":9
				}
			}
		},
		{
			"doubleSided":true,
			"name":"2K_Fabric01.090",
			"pbrMetallicRoughness":{
				"baseColorTexture":{
					"extensions":{
						"KHR_texture_transform":{
							"offset":[
								0,
								-14
							],
							"scale":[
								15,
								15
							]
						}
					},
					"index":10
				},
				"metallicFactor":0,
				"metallicRoughnessTexture":{
					"extensions":{
						"KHR_texture_transform":{
							"offset":[
								0,
								-14
							],
							"scale":[
								15,
								15
							]
						}
					},
					"index":11
				}
			}
		},
		{
			"doubleSided":true,
			"name":"2K_Fabric01.091",
			"pbrMetallicRoughness":{
				"baseColorTexture":{
					"extensions":{
						"KHR_texture_transform":{
							"offset":[
								0,
								-14
							],
							"scale":[
								15,
								15
							]
						}
					},
					"index":12
				},
				"metallicFactor":0,
				"metallicRoughnessTexture":{
					"extensions":{
						"KHR_texture_transform":{
							"offset":[
								0,
								-14
							],
							"scale":[
								15,
								15
							]
						}
					},
					"index":13
				}
			}
		},
		{
			"doubleSided":true,
			"name":"2K_Fabric01.092",
			"pbrMetallicRoughness":{
				"baseColorTexture":{
					"extensions":{
						"KHR_texture_transform":{
							"offset":[
								0,
								-14
							],
							"scale":[
								15,
								15
							]
						}
					},
					"index":14
				},
				"metallicFactor":0,
				"metallicRoughnessTexture":{
					"extensions":{
						"KHR_texture_transform":{
							"offset":[
								0,
								-14
							],
							"scale":[
								15,
								15
							]
						}
					},
					"index":15
				}
			}
		},
		{
			"doubleSided":true,
			"name":"2K_Fabric01.093",
			"pbrMetallicRoughness":{
				"baseColorTexture":{
					"extensions":{
						"KHR_texture_transform":{
							"offset":[
								0,
								-14
							],
							"scale":[
								15,
								15
							]
						}
					},
					"index":16
				},
				"metallicFactor":0,
				"metallicRoughnessTexture":{
					"extensions":{
						"KHR_texture_transform":{
							"offset":[
								0,
								-14
							],
							"scale":[
								15,
								15
							]
						}
					},
					"index":17
				}
			}
		},
		{
			"doubleSided":true,
			"name":"2K_Fabric01.094",
			"pbrMetallicRoughness":{
				"baseColorTexture":{
					"extensions":{
						"KHR_texture_transform":{
							"offset":[
								0,
								-14
							],
							"scale":[
								15,
								15
							]
						}
					},
					"index":18
				},
				"metallicFactor":0,
				"metallicRoughnessTexture":{
					"extensions":{
						"KHR_texture_transform":{
							"offset":[
								0,
								-14
							],
							"scale":[
								15,
								15
							]
						}
					},
					"index":19
				}
			}
		},
		{
			"doubleSided":true,
			"name":"2K_Fabric01.095",
			"pbrMetallicRoughness":{
				"baseColorTexture":{
					"extensions":{
						"KHR_texture_transform":{
							"offset":[
								0,
								-14
							],
							"scale":[
								15,
								15
							]
						}
					},
					"index":20
				},
				"metallicFactor":0,
				"metallicRoughnessTexture":{
					"extensions":{
						"KHR_texture_transform":{
							"offset":[
								0,
								-14
							],
							"scale":[
								15,
								15
							]
						}
					},
					"index":21
				}
			}
		},
		{
			"doubleSided":true,
			"name":"2K_Fabric01.096",
			"pbrMetallicRoughness":{
				"baseColorTexture":{
					"extensions":{
						"KHR_texture_transform":{
							"offset":[
								0,
								-14
							],
							"scale":[
								15,
								15
							]
						}
					},
					"index":22
				},
				"metallicFactor":0,
				"metallicRoughnessTexture":{
					"extensions":{
						"KHR_texture_transform":{
							"offset":[
								0,
								-14
							],
							"scale":[
								15,
								15
							]
						}
					},
					"index":23
				}
			}
		}
	],
	"meshes":[
		{
			"name":"Plane.089",
			"primitives":[
				{
					"attributes":{
						"POSITION":0,
						"TEXCOORD_0":1,
						"NORMAL":2
					},
					"indices":3,
					"material":0
				},
				{
					"attributes":{
						"POSITION":4,
						"TEXCOORD_0":5,
						"NORMAL":6
					},
					"indices":3,
					"material":1
				},
				{
					"attributes":{
						"POSITION":7,
						"TEXCOORD_0":8,
						"NORMAL":9
					},
					"indices":3,
					"material":2
				},
				{
					"attributes":{
						"POSITION":10,
						"TEXCOORD_0":11,
						"NORMAL":12
					},
					"indices":3,
					"material":3
				},
				{
					"attributes":{
						"POSITION":13,
						"TEXCOORD_0":14,
						"NORMAL":15
					},
					"indices":3,
					"material":4
				},
				{
					"attributes":{
						"POSITION":16,
						"TEXCOORD_0":17,
						"NORMAL":18
					},
					"indices":19,
					"material":5
				},
				{
					"attributes":{
						"POSITION":20,
						"TEXCOORD_0":21,
						"NORMAL":22
					},
					"indices":3,
					"material":6
				},
				{
					"attributes":{
						"POSITION":23,
						"TEXCOORD_0":24,
						"NORMAL":25
					},
					"indices":3,
					"material":7
				},
				{
					"attributes":{
						"POSITION":26,
						"TEXCOORD_0":27,
						"NORMAL":28
					},
					"indices":3,
					"material":8
				},
				{
					"attributes":{
						"POSITION":29,
						"TEXCOORD_0":30,
						"NORMAL":31
					},
					"indices":3,
					"material":9
				},
				{
					"attributes":{
						"POSITION":32,
						"TEXCOORD_0":33,
						"NORMAL":34
					},
					"indices":3,
					"material":10
				},
				{
					"attributes":{
						"POSITION":35,
						"TEXCOORD_0":36,
						"NORMAL":37
					},
					"indices":3,
					"material":11
				}
			]
		}
	],
	"textures":[
		{
			"sampler":0,
			"source":0
		},
		{
			"sampler":0,
			"source":1
		},
		{
			"sampler":0,
			"source":2
		},
		{
			"sampler":0,
			"source":3
		},
		{
			"sampler":0,
			"source":2
		},
		{
			"sampler":0,
			"source":3
		},
		{
			"sampler":0,
			"source":0
		},
		{
			"sampler":0,
			"source":3
		},
		{
			"sampler":0,
			"source":0
		},
		{
			"sampler":0,
			"source":3
		},
		{
			"sampler":0,
			"source":0
		},
		{
			"sampler":0,
			"source":3
		},
		{
			"sampler":0,
			"source":0
		},
		{
			"sampler":0,
			"source":3
		},
		{
			"sampler":0,
			"source":0
		},
		{
			"sampler":0,
			"source":3
		},
		{
			"sampler":0,
			"source":0
		},
		{
			"sampler":0,
			"source":3
		},
		{
			"sampler":0,
			"source":0
		},
		{
			"sampler":0,
			"source":3
		},
		{
			"sampler":0,
			"source":0
		},
		{
			"sampler":0,
			"source":3
		},
		{
			"sampler":0,
			"source":0
		},
		{
			"sampler":0,
			"source":3
		}
	],
	"images":[
		{
			"bufferView":4,
			"mimeType":"image/jpeg",
			"name":"15_canvas fabric texture-seamless.jpg"
		},
		{
			"bufferView":5,
			"mimeType":"image/png",
			"name":"Fabric_034_roughness"
		},
		{
			"bufferView":9,
			"mimeType":"image/jpeg",
			"name":"15_canvas fabric texture-seamless"
		},
		{
			"bufferView":10,
			"mimeType":"image/png",
			"name":"Image"
		}
	],
	"accessors":[
		{
			"bufferView":0,
			"componentType":5126,
			"count":2440,
			"max":[
				0.3877279460430145,
				9.313628196716309,
				0.5857838988304138
			],
			"min":[
				-2.956336259841919,
				-0.6592540144920349,
				-0.5303888320922852
			],
			"type":"VEC3"
		},
		{
			"bufferView":1,
			"componentType":5126,
			"count":2440,
			"type":"VEC2"
		},
		{
			"bufferView":2,
			"componentType":5126,
			"count":2440,
			"type":"VEC3"
		},
		{
			"bufferView":3,
			"componentType":5123,
			"count":14046,
			"type":"SCALAR"
		},
		{
			"bufferView":6,
			"componentType":5126,
			"count":2440,
			"max":[
				-15.461609840393066,
				-8.453449249267578,
				21.177745819091797
			],
			"min":[
				-22.97459602355957,
				-14.33395767211914,
				13.70409107208252
			],
			"type":"VEC3"
		},
		{
			"bufferView":7,
			"componentType":5126,
			"count":2440,
			"type":"VEC2"
		},
		{
			"bufferView":8,
			"componentType":5126,
			"count":2440,
			"type":"VEC3"
		},
		{
			"bufferView":11,
			"componentType":5126,
			"count":2440,
			"max":[
				-15.51191520690918,
				-6.631591320037842,
				14.464519500732422
			],
			"min":[
				-19.05377769470215,
				-14.21286678314209,
				5.779580593109131
			],
			"type":"VEC3"
		},
		{
			"bufferView":12,
			"componentType":5126,
			"count":2440,
			"type":"VEC2"
		},
		{
			"bufferView":13,
			"componentType":5126,
			"count":2440,
			"type":"VEC3"
		},
		{
			"bufferView":14,
			"componentType":5126,
			"count":2440,
			"max":[
				-8.656660079956055,
				-3.70121431350708,
				6.5228776931762695
			],
			"min":[
				-17.813669204711914,
				-8.838286399841309,
				2.6281330585479736
			],
			"type":"VEC3"
		},
		{
			"bufferView":15,
			"componentType":5126,
			"count":2440,
			"type":"VEC2"
		},
		{
			"bufferView":16,
			"componentType":5126,
			"count":2440,
			"type":"VEC3"
		},
		{
			"bufferView":17,
			"componentType":5126,
			"count":2440,
			"max":[
				-8.72132396697998,
				0.7476139068603516,
				3.2956323623657227
			],
			"min":[
				-11.843799591064453,
				-8.672661781311035,
				-1.6267361640930176
			],
			"type":"VEC3"
		},
		{
			"bufferView":18,
			"componentType":5126,
			"count":2440,
			"type":"VEC2"
		},
		{
			"bufferView":19,
			"componentType":5126,
			"count":2440,
			"type":"VEC3"
		},
		{
			"bufferView":20,
			"componentType":5126,
			"count":2440,
			"max":[
				0.2206707000732422,
				3.967945098876953,
				0.3931596875190735
			],
			"min":[
				-9.203104019165039,
				-0.9429900646209717,
				-2.061880588531494
			],
			"type":"VEC3"
		},
		{
			"bufferView":21,
			"componentType":5126,
			"count":2440,
			"type":"VEC2"
		},
		{
			"bufferView":22,
			"componentType":5126,
			"count":2440,
			"type":"VEC3"
		},
		{
			"bufferView":23,
			"componentType":5123,
			"count":14046,
			"type":"SCALAR"
		},
		{
			"bufferView":24,
			"componentType":5126,
			"count":2440,
			"max":[
				-18.31943702697754,
				-8.740962028503418,
				38.68498611450195
			],
			"min":[
				-23.45283317565918,
				-15.908138275146484,
				29.414552688598633
			],
			"type":"VEC3"
		},
		{
			"bufferView":25,
			"componentType":5126,
			"count":2440,
			"type":"VEC2"
		},
		{
			"bufferView":26,
			"componentType":5126,
			"count":2440,
			"type":"VEC3"
		},
		{
			"bufferView":27,
			"componentType":5126,
			"count":2440,
			"max":[
				-18.466854095458984,
				-9.392271041870117,
				30.19685173034668
			],
			"min":[
				-23.008071899414062,
				-15.757158279418945,
				20.73019790649414
			],
			"type":"VEC3"
		},
		{
			"bufferView":28,
			"componentType":5126,
			"count":2440,
			"type":"VEC2"
		},
		{
			"bufferView":29,
			"componentType":5126,
			"count":2440,
			"type":"VEC3"
		},
		{
			"bufferView":30,
			"componentType":5126,
			"count":2440,
			"max":[
				-16.431203842163086,
				-7.467813491821289,
				46.07439041137695
			],
			"min":[
				-23.122291564941406,
				-12.77083683013916,
				38.217201232910156
			],
			"type":"VEC3"
		},
		{
			"bufferView":31,
			"componentType":5126,
			"count":2440,
			"type":"VEC2"
		},
		{
			"bufferView":32,
			"componentType":5126,
			"count":2440,
			"type":"VEC3"
		},
		{
			"bufferView":33,
			"componentType":5126,
			"count":2440,
			"max":[
				-16.186033248901367,
				-3.8617992401123047,
				53.04616928100586
			],
			"min":[
				-19.913841247558594,
				-12.960871696472168,
				45.263057708740234
			],
			"type":"VEC3"
		},
		{
			"bufferView":34,
			"componentType":5126,
			"count":2440,
			"type":"VEC2"
		},
		{
			"bufferView":35,
			"componentType":5126,
			"count":2440,
			"type":"VEC3"
		},
		{
			"bufferView":36,
			"componentType":5126,
			"count":2440,
			"max":[
				-9.732751846313477,
				4.200905799865723,
				59.68282699584961
			],
			"min":[
				-12.962197303771973,
				-6.302703857421875,
				55.644290924072266
			],
			"type":"VEC3"
		},
		{
			"bufferView":37,
			"componentType":5126,
			"count":2440,
			"type":"VEC2"
		},
		{
			"bufferView":38,
			"componentType":5126,
			"count":2440,
			"type":"VEC3"
		},
		{
			"bufferView":39,
			"componentType":5126,
			"count":2440,
			"max":[
				-9.942449569702148,
				-1.332803726196289,
				56.5986442565918
			],
			"min":[
				-18.268461227416992,
				-6.195043087005615,
				52.16094207763672
			],
			"type":"VEC3"
		},
		{
			"bufferView":40,
			"componentType":5126,
			"count":2440,
			"type":"VEC2"
		},
		{
			"bufferView":41,
			"componentType":5126,
			"count":2440,
			"type":"VEC3"
		},
		{
			"bufferView":42,
			"componentType":5126,
			"count":2,
			"max":[
				0.08333333333333333
			],
			"min":[
				0.041666666666666664
			],
			"type":"SCALAR"
		},
		{
			"bufferView":43,
			"componentType":5126,
			"count":2,
			"type":"VEC3"
		},
		{
			"bufferView":44,
			"componentType":5126,
			"count":2,
			"type":"VEC4"
		},
		{
			"bufferView":45,
			"componentType":5126,
			"count":2,
			"type":"VEC3"
		}
	],
	"bufferViews":[
		{
			"buffer":0,
			"byteLength":29280,
			"byteOffset":0,
			"target":34962
		},
		{
			"buffer":0,
			"byteLength":19520,
			"byteOffset":29280,
			"target":34962
		},
		{
			"buffer":0,
			"byteLength":29280,
			"byteOffset":48800,
			"target":34962
		},
		{
			"buffer":0,
			"byteLength":28092,
			"byteOffset":78080,
			"target":34963
		},
		{
			"buffer":0,
			"byteLength":856763,
			"byteOffset":106172
		},
		{
			"buffer":0,
			"byteLength":15799,
			"byteOffset":962936
		},
		{
			"buffer":0,
			"byteLength":29280,
			"byteOffset":978736,
			"target":34962
		},
		{
			"buffer":0,
			"byteLength":19520,
			"byteOffset":1008016,
			"target":34962
		},
		{
			"buffer":0,
			"byteLength":29280,
			"byteOffset":1027536,
			"target":34962
		},
		{
			"buffer":0,
			"byteLength":856763,
			"byteOffset":1056816
		},
		{
			"buffer":0,
			"byteLength":90,
			"byteOffset":1913580
		},
		{
			"buffer":0,
			"byteLength":29280,
			"byteOffset":1913672,
			"target":34962
		},
		{
			"buffer":0,
			"byteLength":19520,
			"byteOffset":1942952,
			"target":34962
		},
		{
			"buffer":0,
			"byteLength":29280,
			"byteOffset":1962472,
			"target":34962
		},
		{
			"buffer":0,
			"byteLength":29280,
			"byteOffset":1991752,
			"target":34962
		},
		{
			"buffer":0,
			"byteLength":19520,
			"byteOffset":2021032,
			"target":34962
		},
		{
			"buffer":0,
			"byteLength":29280,
			"byteOffset":2040552,
			"target":34962
		},
		{
			"buffer":0,
			"byteLength":29280,
			"byteOffset":2069832,
			"target":34962
		},
		{
			"buffer":0,
			"byteLength":19520,
			"byteOffset":2099112,
			"target":34962
		},
		{
			"buffer":0,
			"byteLength":29280,
			"byteOffset":2118632,
			"target":34962
		},
		{
			"buffer":0,
			"byteLength":29280,
			"byteOffset":2147912,
			"target":34962
		},
		{
			"buffer":0,
			"byteLength":19520,
			"byteOffset":2177192,
			"target":34962
		},
		{
			"buffer":0,
			"byteLength":29280,
			"byteOffset":2196712,
			"target":34962
		},
		{
			"buffer":0,
			"byteLength":28092,
			"byteOffset":2225992,
			"target":34963
		},
		{
			"buffer":0,
			"byteLength":29280,
			"byteOffset":2254084,
			"target":34962
		},
		{
			"buffer":0,
			"byteLength":19520,
			"byteOffset":2283364,
			"target":34962
		},
		{
			"buffer":0,
			"byteLength":29280,
			"byteOffset":2302884,
			"target":34962
		},
		{
			"buffer":0,
			"byteLength":29280,
			"byteOffset":2332164,
			"target":34962
		},
		{
			"buffer":0,
			"byteLength":19520,
			"byteOffset":2361444,
			"target":34962
		},
		{
			"buffer":0,
			"byteLength":29280,
			"byteOffset":2380964,
			"target":34962
		},
		{
			"buffer":0,
			"byteLength":29280,
			"byteOffset":2410244,
			"target":34962
		},
		{
			"buffer":0,
			"byteLength":19520,
			"byteOffset":2439524,
			"target":34962
		},
		{
			"buffer":0,
			"byteLength":29280,
			"byteOffset":2459044,
			"target":34962
		},
		{
			"buffer":0,
			"byteLength":29280,
			"byteOffset":2488324,
			"target":34962
		},
		{
			"buffer":0,
			"byteLength":19520,
			"byteOffset":2517604,
			"target":34962
		},
		{
			"buffer":0,
			"byteLength":29280,
			"byteOffset":2537124,
			"target":34962
		},
		{
			"buffer":0,
			"byteLength":29280,
			"byteOffset":2566404,
			"target":34962
		},
		{
			"buffer":0,
			"byteLength":19520,
			"byteOffset":2595684,
			"target":34962
		},
		{
			"buffer":0,
			"byteLength":29280,
			"byteOffset":2615204,
			"target":34962
		},
		{
			"buffer":0,
			"byteLength":29280,
			"byteOffset":2644484,
			"target":34962
		},
		{
			"buffer":0,
			"byteLength":19520,
			"byteOffset":2673764,
			"target":34962
		},
		{
			"buffer":0,
			"byteLength":29280,
			"byteOffset":2693284,
			"target":34962
		},
		{
			"buffer":0,
			"byteLength":8,
			"byteOffset":2722564
		},
		{
			"buffer":0,
			"byteLength":24,
			"byteOffset":2722572
		},
		{
			"buffer":0,
			"byteLength":32,
			"byteOffset":2722596
		},
		{
			"buffer":0,
			"byteLength":24,
			"byteOffset":2722628
		}
	],
	"samplers":[
		{
			"magFilter":9729,
			"minFilter":9987
		}
	],
	"buffers":[
		{
			"byteLength":2722652,
			"uri":"data:application/octet-stream;base64,"
		}
	]
}
